<svg width="18" height="16" viewBox="0 0 18 16" fill="none" xmlns="http://www.w3.org/2000/svg">
<path d="M16.666 0.802734H1.33268C0.963932 0.802734 0.666016 1.07341 0.666016 1.40844V15.3397C0.666016 15.6747 0.963932 15.9454 1.33268 15.9454H16.666C17.0348 15.9454 17.3327 15.6747 17.3327 15.3397V1.40844C17.3327 1.07341 17.0348 0.802734 16.666 0.802734ZM14.741 5.22249H13.4098C12.366 5.22249 12.1639 5.67299 12.1639 6.33548V7.79485H14.6556L14.3306 10.0795H12.1639V15.9454H9.56601V10.0814H7.3931V7.79485H9.56601V6.11023C9.56601 4.15494 10.8806 3.08927 12.8014 3.08927C13.7223 3.08927 14.5118 3.15174 14.7431 3.18013V5.22249H14.741Z" fill="#AAAAAA"/>
</svg>
