<svg width="18" height="16" viewBox="0 0 18 16" fill="none" xmlns="http://www.w3.org/2000/svg">
<path d="M8.99726 5.84921C7.46706 5.84921 6.2183 6.98378 6.2183 8.37406C6.2183 9.76433 7.46706 10.8989 8.99726 10.8989C10.5275 10.8989 11.7762 9.76433 11.7762 8.37406C11.7762 6.98378 10.5275 5.84921 8.99726 5.84921ZM17.3321 8.37406C17.3321 7.32851 17.3425 6.29243 17.2779 5.24878C17.2132 4.03654 16.9089 2.96069 15.9332 2.07425C14.9555 1.18591 13.7734 0.911262 12.4392 0.852545C11.2884 0.793827 10.148 0.803298 8.99935 0.803298C7.84857 0.803298 6.70822 0.793827 5.55952 0.852545C4.22529 0.911262 3.04116 1.1878 2.0655 2.07425C1.08775 2.96258 0.785466 4.03654 0.720839 5.24878C0.656212 6.29432 0.666636 7.3304 0.666636 8.37406C0.666636 9.41771 0.656212 10.4557 0.720839 11.4993C0.785466 12.7116 1.08984 13.7874 2.0655 14.6739C3.04324 15.5622 4.22529 15.8369 5.55952 15.8956C6.7103 15.9543 7.85065 15.9448 8.99935 15.9448C10.1501 15.9448 11.2905 15.9543 12.4392 15.8956C13.7734 15.8369 14.9575 15.5603 15.9332 14.6739C16.9109 13.7855 17.2132 12.7116 17.2779 11.4993C17.3446 10.4557 17.3321 9.41961 17.3321 8.37406ZM8.99726 12.2589C6.63108 12.2589 4.72146 10.5239 4.72146 8.37406C4.72146 6.22424 6.63108 4.48924 8.99726 4.48924C11.3634 4.48924 13.2731 6.22424 13.2731 8.37406C13.2731 10.5239 11.3634 12.2589 8.99726 12.2589ZM13.4482 5.23741C12.8957 5.23741 12.4496 4.83207 12.4496 4.33013C12.4496 3.82819 12.8957 3.42285 13.4482 3.42285C14.0006 3.42285 14.4468 3.82819 14.4468 4.33013C14.4469 4.44932 14.4212 4.56737 14.3711 4.67751C14.321 4.78765 14.2474 4.88773 14.1547 4.97201C14.0619 5.05629 13.9518 5.12311 13.8305 5.16865C13.7093 5.21419 13.5794 5.23756 13.4482 5.23741Z" fill="#AAAAAA"/>
</svg>
