<svg width="175" height="155" viewBox="0 0 175 155" fill="none" xmlns="http://www.w3.org/2000/svg">
<g opacity="0.5">
<path d="M174.266 83.792L1.26563 83.792" stroke="#E3C08D"/>
<path d="M174.266 76.2417H1.26563" stroke="#E3C08D"/>
<path d="M174.266 68.6895H1.26563" stroke="#E3C08D"/>
<path d="M174.266 61.1392L1.26563 61.1392" stroke="#E3C08D"/>
<path d="M174.266 53.5889L1.26563 53.5889" stroke="#E3C08D"/>
<path d="M174.266 46.0386L1.26563 46.0386" stroke="#E3C08D"/>
<path d="M174.266 38.4868L1.26563 38.4868" stroke="#E3C08D"/>
<path d="M174.266 30.9365L1.26563 30.9365" stroke="#E3C08D"/>
<path d="M174.266 23.3862L1.26563 23.3862" stroke="#E3C08D"/>
<path d="M174.266 15.834L1.26563 15.834" stroke="#E3C08D"/>
<path d="M174.266 8.28369L1.26563 8.28369" stroke="#E3C08D"/>
<path d="M174.266 0.733398L1.26563 0.733398" stroke="#E3C08D"/>
<path d="M1.26562 154.267L1.26563 83.7923" stroke="#E3C08D"/>
<path d="M9.57031 154.267L9.57032 83.7923" stroke="#E3C08D"/>
<path d="M17.875 154.267L17.875 83.7923" stroke="#E3C08D"/>
<path d="M26.1797 154.267L26.1797 83.7923" stroke="#E3C08D"/>
<path d="M34.4805 154.267L34.4805 83.7923" stroke="#E3C08D"/>
<path d="M42.7852 154.267L42.7852 83.7923" stroke="#E3C08D"/>
<path d="M51.0898 154.267L51.0898 83.7923" stroke="#E3C08D"/>
<path d="M59.3945 154.267L59.3945 83.7923" stroke="#E3C08D"/>
<path d="M67.6992 154.267L67.6992 83.7923" stroke="#E3C08D"/>
<path d="M76 154.267L76 83.7923" stroke="#E3C08D"/>
<path d="M84.3047 154.267L84.3047 83.7923" stroke="#E3C08D"/>
<path d="M92.6094 154.267L92.6094 83.7923" stroke="#E3C08D"/>
</g>
</svg>
