<svg width="18" height="16" viewBox="0 0 18 16" fill="none" xmlns="http://www.w3.org/2000/svg">
<path d="M16.666 0.802734H1.33268C0.963932 0.802734 0.666016 1.07341 0.666016 1.40844V15.3397C0.666016 15.6747 0.963932 15.9454 1.33268 15.9454H16.666C17.0348 15.9454 17.3327 15.6747 17.3327 15.3397V1.40844C17.3327 1.07341 17.0348 0.802734 16.666 0.802734ZM13.4848 6.28626C13.491 6.37523 13.491 6.46798 13.491 6.55883C13.491 9.33751 11.1618 12.5383 6.9056 12.5383C5.5931 12.5383 4.37643 12.1919 3.35143 11.5957C3.53893 11.6146 3.7181 11.6222 3.90977 11.6222C4.9931 11.6222 5.98893 11.289 6.78268 10.725C5.76602 10.706 4.91185 10.1003 4.62018 9.26747C4.97643 9.31479 5.29726 9.31479 5.66393 9.22962C5.14044 9.13299 4.66992 8.87468 4.3323 8.49857C3.99468 8.12247 3.81078 7.65177 3.81185 7.16643V7.13993C4.1181 7.29704 4.47852 7.39357 4.8556 7.40682C4.5386 7.21488 4.27864 6.95483 4.09875 6.64974C3.91886 6.34466 3.82461 6.00395 3.82435 5.65785C3.82435 5.26603 3.93685 4.90828 4.13893 4.59786C4.71998 5.24774 5.44504 5.77925 6.26698 6.15787C7.08893 6.53648 7.98936 6.75371 8.90976 6.79544C8.58268 5.36635 9.75768 4.20983 11.1702 4.20983C11.8368 4.20983 12.4368 4.46347 12.8598 4.87232C13.3827 4.78336 13.8827 4.60543 14.3285 4.36693C14.1556 4.85339 13.7931 5.26414 13.3118 5.52345C13.7785 5.47803 14.2285 5.36067 14.6452 5.19599C14.3306 5.6162 13.9368 5.98909 13.4848 6.28626Z" fill="#AAAAAA"/>
</svg>
