<svg width="18" height="12" viewBox="0 0 18 12" fill="none" xmlns="http://www.w3.org/2000/svg">
<path d="M16.9848 1.84781C16.89 1.50427 16.7039 1.19099 16.4454 0.939313C16.1869 0.687636 15.8649 0.50639 15.5116 0.413717C14.2114 0.0737305 8.99935 0.0737305 8.99935 0.0737305C8.99935 0.0737305 3.78729 0.0737304 2.48707 0.411908C2.13369 0.504281 1.81152 0.685426 1.55293 0.93715C1.29434 1.18887 1.10842 1.50232 1.01386 1.846C0.666016 3.1119 0.666016 5.75222 0.666016 5.75222C0.666016 5.75222 0.666016 8.39254 1.01386 9.65664C1.20545 10.3547 1.77093 10.9045 2.48707 11.0907C3.78729 11.4307 8.99935 11.4307 8.99935 11.4307C8.99935 11.4307 14.2114 11.4307 15.5116 11.0907C16.2296 10.9045 16.7932 10.3547 16.9848 9.65664C17.3327 8.39254 17.3327 5.75222 17.3327 5.75222C17.3327 5.75222 17.3327 3.11191 16.9848 1.84781ZM7.34384 8.17553V3.32892L11.6593 5.73414L7.34384 8.17553Z" fill="#AAAAAA"/>
</svg>
